<?xml version="1.0" encoding="iso-8859-1"?>
<!-- Generator: Adobe Illustrator 19.0.0, SVG Export Plug-In . SVG Version: 6.00 Build 0)  -->
<svg version="1.1" id="Capa_1" xmlns="http://www.w3.org/2000/svg" xmlns:xlink="http://www.w3.org/1999/xlink" x="0px" y="0px"
	 viewBox="0 0 490 490" style="enable-background:new 0 0 490 490;" xml:space="preserve">
<path d="M69.086,490h351.829C459.001,490,490,459.001,490,420.914V69.086C490,30.999,459.001,0,420.914,0H69.086
	C30.999,0,0,30.999,0,69.086v351.829C0,459.001,30.999,490,69.086,490z M156.355,349.286l-6.31-29.967l188.057-39.522l6.31,29.967
	L156.355,349.286z M332.429,132.647c23.55,0,42.641,19.091,42.641,42.641c0,23.551-19.091,42.642-42.641,42.642
	c-23.551,0-42.642-19.091-42.642-42.642C289.787,151.738,308.878,132.647,332.429,132.647z M157.731,132.647
	c23.551,0,42.642,19.091,42.642,42.641c0,23.551-19.091,42.642-42.642,42.642c-23.55,0-42.642-19.091-42.642-42.642
	C115.089,151.738,134.181,132.647,157.731,132.647z"/>
<g>
</g>
<g>
</g>
<g>
</g>
<g>
</g>
<g>
</g>
<g>
</g>
<g>
</g>
<g>
</g>
<g>
</g>
<g>
</g>
<g>
</g>
<g>
</g>
<g>
</g>
<g>
</g>
<g>
</g>
</svg>
